<?xml version="1.0" encoding="UTF-8"?>
<svg id="Layer_1" data-name="Layer 1" xmlns="http://www.w3.org/2000/svg" viewBox="0 0 240.72 219.19">
  <defs>
    <style>
      .cls-1 {
        fill: #6bcde6;
        fill-rule: evenodd;
      }
    </style>
  </defs>
  <path class="cls-1" d="M129.65,78.45c36.79,13.25,68.46,39.16,88.59,74.02,26.15,45.28,29.48,99.88,10,147.53-2.84-6.96-6.18-13.78-10-20.4-14.82-25.68-35.91-46.5-60.7-60.97-1.84-8.82-5.09-17.42-9.73-25.47-15.5-26.84-43.99-43.29-74.99-43.29H0v-81.34h.15v-2s22.13.12,47.53-4.42c7.93-1.42,15.72-3.28,22.4-5.82,4.8-1.84,9.02-3.78,11.52-6.67C98.85,29.73,98.7.63,98.7.12V.06l30.95-.06v78.45Z"/>
</svg>