<?xml version="1.0" encoding="UTF-8"?>
<svg id="Layer_1" data-name="Layer 1" xmlns="http://www.w3.org/2000/svg" viewBox="0 0 219.31 239.59">
  <defs>
    <style>
      .cls-1 {
        fill: #cdde64;
        fill-rule: evenodd;
      }
    </style>
  </defs>
  <path class="cls-1" d="M69.83.38v-.15h80.89v72.41c0,30.82,16.35,59.15,43.03,74.57,8.01,4.62,16.56,7.85,25.33,9.68,14.4,24.65,35.1,45.62,60.63,60.35,6.57,3.8,13.35,7.12,20.29,9.94-47.38,19.36-101.67,16.06-146.69-9.94-34.67-20.01-60.43-51.5-73.61-88.08H0l.06-30.78h.06c.51,0,29.44.15,49.23-17.01,2.86-2.48,4.8-6.68,6.62-11.45,2.53-6.64,4.39-14.39,5.79-22.27C66.27,22.39,66.15.39,66.15.39h3.68Z"/>
</svg>