<svg width="160" height="25" viewBox="0 0 160 25" fill="none" xmlns="http://www.w3.org/2000/svg">
<path fill-rule="evenodd" clip-rule="evenodd" d="M2.84903 0.364408H7.91763L13.4832 17.3923L19.0487 0.364408H24.1173L26.9663 23.6535H22.4609L20.7382 7.55322L15.4377 23.6535H11.5617L6.29435 7.55322L4.50543 23.6535H0L2.84903 0.364408ZM38.263 24.0179C36.4299 24.0179 34.6962 23.6645 33.0619 22.9578C31.4496 22.2511 30.0583 21.2131 28.8877 19.8438L31.7368 16.9285C32.6202 17.8782 33.614 18.607 34.7183 19.1149C35.8447 19.6008 37.0041 19.8438 38.1967 19.8438C39.4556 19.8438 40.4384 19.5898 41.1452 19.0818C41.874 18.5739 42.2384 17.8782 42.2384 16.9947C42.2384 16.1776 41.874 15.515 41.1452 15.0071C40.4163 14.4991 39.0912 13.9801 37.1698 13.45C35.425 12.9642 34.0447 12.4231 33.0288 11.8267C32.0128 11.2304 31.273 10.5127 30.8092 9.67342C30.3675 8.83417 30.1466 7.81824 30.1466 6.62563C30.1466 5.38885 30.4448 4.27353 31.0411 3.27969C31.6595 2.26376 32.565 1.46868 33.7576 0.894459C34.9502 0.298152 36.3968 0 38.0974 0C39.7317 0 41.2445 0.276067 42.6359 0.828203C44.0273 1.35825 45.2641 2.13124 46.3463 3.14717L43.7623 6.22809C43.0776 5.6097 42.2384 5.10174 41.2445 4.7042C40.2728 4.28457 39.29 4.07476 38.2961 4.07476C37.236 4.07476 36.3637 4.29562 35.679 4.73732C34.9944 5.17903 34.652 5.74221 34.652 6.42686C34.652 7.17777 34.9833 7.79616 35.6459 8.28204C36.3084 8.74583 37.5342 9.2538 39.3231 9.80593C41.2004 10.3802 42.669 10.9875 43.7291 11.628C44.8113 12.2685 45.5843 13.0083 46.0481 13.8476C46.534 14.6868 46.7769 15.7027 46.7769 16.8954C46.7769 18.3309 46.4125 19.5898 45.6837 20.672C44.977 21.7542 43.9721 22.5824 42.669 23.1566C41.3881 23.7308 39.9194 24.0179 38.263 24.0179ZM50.7192 0.364408H55.1915V23.6535H50.7192V0.364408ZM60.757 0.364408H69.1715C71.4022 0.364408 73.434 0.872373 75.2671 1.8883C77.1223 2.90423 78.591 4.30666 79.6732 6.09558C80.7554 7.86241 81.2964 9.82802 81.2964 11.9924C81.2964 14.1568 80.7554 16.1334 79.6732 17.9223C78.6131 19.6892 77.1554 21.0916 75.3002 22.1296C73.4451 23.1455 71.4132 23.6535 69.2047 23.6535H60.757V0.364408ZM69.3372 19.38C70.7286 19.38 71.9874 19.0597 73.1138 18.4193C74.2402 17.7788 75.1236 16.8954 75.7641 15.769C76.4266 14.6426 76.7579 13.3838 76.7579 11.9924C76.7579 10.601 76.4266 9.35318 75.7641 8.24891C75.1236 7.12255 74.2291 6.23914 73.0807 5.59866C71.9543 4.95818 70.6954 4.63794 69.3041 4.63794H65.2293V19.38H69.3372Z" fill="#313638"/>
<path fill-rule="evenodd" clip-rule="evenodd" d="M96.7329 24.0179C94.5464 24.0179 92.5366 23.4879 90.7035 22.4278C88.8704 21.3456 87.4128 19.8879 86.3306 18.0549C85.2705 16.2218 84.7405 14.2009 84.7405 11.9924C84.7405 9.78386 85.2705 7.76304 86.3306 5.92995C87.3907 4.09685 88.8373 2.65026 90.6704 1.59016C92.5035 0.530057 94.5243 7.62939e-06 96.7329 7.62939e-06C98.2567 7.62939e-06 99.6813 0.25399 101.006 0.761955C102.354 1.26992 103.557 1.9877 104.617 2.91528L103.06 4.9361C102.177 4.20728 101.194 3.6441 100.112 3.24656C99.0297 2.82694 97.9034 2.61713 96.7329 2.61713C95.0544 2.61713 93.5084 3.03675 92.0949 3.876C90.7035 4.69316 89.5882 5.81952 88.749 7.25507C87.9318 8.69063 87.5232 10.2808 87.5232 12.0255C87.5232 13.7482 87.9318 15.3273 88.749 16.7629C89.5882 18.1984 90.7035 19.3358 92.0949 20.1751C93.5084 20.9922 95.0544 21.4008 96.7329 21.4008C98.9856 21.4008 101.106 20.5947 103.093 18.9824L104.617 21.0364C103.535 21.964 102.32 22.6928 100.973 23.2228C99.6481 23.7529 98.2347 24.0179 96.7329 24.0179Z" fill="#313638"/>
<path fill-rule="evenodd" clip-rule="evenodd" d="M118.623 24.0179C116.436 24.0179 114.427 23.4879 112.594 22.4278C110.76 21.3456 109.303 19.8879 108.221 18.0549C107.161 16.2218 106.631 14.2009 106.631 11.9924C106.631 9.78386 107.161 7.76304 108.221 5.92995C109.281 4.09685 110.727 2.65026 112.56 1.59016C114.394 0.530057 116.414 7.62939e-06 118.623 7.62939e-06C120.809 7.62939e-06 122.819 0.530057 124.652 1.59016C126.485 2.65026 127.932 4.09685 128.992 5.92995C130.052 7.76304 130.582 9.78386 130.582 11.9924C130.582 14.2009 130.052 16.2218 128.992 18.0549C127.932 19.8879 126.485 21.3456 124.652 22.4278C122.819 23.4879 120.809 24.0179 118.623 24.0179ZM118.623 21.4008C120.301 21.4008 121.836 20.9922 123.228 20.1751C124.641 19.3358 125.757 18.1984 126.574 16.7629C127.413 15.3273 127.833 13.7482 127.833 12.0255C127.833 10.2808 127.413 8.69063 126.574 7.25507C125.757 5.81952 124.641 4.69316 123.228 3.876C121.836 3.03675 120.301 2.61713 118.623 2.61713C116.944 2.61713 115.398 3.03675 113.985 3.876C112.594 4.69316 111.478 5.81952 110.639 7.25507C109.822 8.69063 109.413 10.2808 109.413 12.0255C109.413 13.7482 109.822 15.3273 110.639 16.7629C111.478 18.1984 112.594 19.3358 113.985 20.1751C115.398 20.9922 116.944 21.4008 118.623 21.4008Z" fill="#313638"/>
<path fill-rule="evenodd" clip-rule="evenodd" d="M136.545 0.364525H139.659L146.948 19.7445L154.236 0.364525H157.35L160 23.6536H157.25L155.263 4.70431L148.107 23.6536H145.788L138.665 4.70431L136.645 23.6536H133.895L136.545 0.364525Z" fill="#313638"/>
</svg>
