<?xml version="1.0" encoding="UTF-8"?>
<svg id="Layer_1" data-name="Layer 1" xmlns="http://www.w3.org/2000/svg" viewBox="0 0 219.31 95.96">
  <defs>
    <style>
      .cls-1 {
        fill: #51c1af;
      }

      .cls-1, .cls-2, .cls-3 {
        fill-rule: evenodd;
      }

      .cls-2 {
        fill: #6bcde6;
      }

      .cls-3 {
        fill: #cdde64;
      }
    </style>
  </defs>
  <path class="cls-3" d="M81.62,36.12c7.01-1.49,14.43-.38,20.83,3.32,2.62,1.51,4.94,3.38,6.91,5.54-4.98,5.36-7.84,12.48-7.84,20.03v24.83h-27.74v-24.83c0-10.32,2.79-20.26,7.83-28.89Z"/>
  <path class="cls-2" d="M109.37,44.97c1.98-2.16,4.3-4.03,6.92-5.54,6.41-3.7,13.82-4.81,20.83-3.32,5.04,8.62,7.83,18.56,7.83,28.89v24.83h-27.74v-24.83c0-7.55-2.86-14.66-7.85-20.03Z"/>
  <path class="cls-1" d="M109.37,12.01c2.38.97,4.7,2.1,6.96,3.41,8.76,5.06,15.85,12.24,20.79,20.7-7.01-1.49-14.43-.38-20.83,3.32-2.62,1.51-4.94,3.38-6.92,5.54-1.97-2.16-4.3-4.03-6.91-5.54-6.41-3.7-13.82-4.81-20.83-3.32,4.94-8.45,12.04-15.64,20.79-20.7,2.26-1.3,4.58-2.44,6.96-3.41Z"/>
  <path class="cls-3" d="M188.3,89.78v.05h-27.74v-24.83c0-10.57-5.6-20.29-14.76-25.57-2.75-1.58-5.68-2.69-8.69-3.32-4.94-8.45-12.04-15.64-20.79-20.7-2.25-1.3-4.58-2.44-6.96-3.41,16.25-6.64,34.86-5.51,50.31,3.41,11.89,6.86,20.72,17.66,25.24,30.21h27.33l-.02,10.55h-.02c-.17,0-10.09-.05-16.88,5.83-.98.85-1.65,2.29-2.27,3.93-.87,2.28-1.5,4.93-1.99,7.64-1.55,8.66-1.51,16.2-1.51,16.2h-1.26Z"/>
  <path class="cls-2" d="M33.82,45.63c4.52-12.55,13.35-23.34,25.24-30.21,15.44-8.92,34.06-10.05,50.3-3.41-2.37.97-4.7,2.11-6.96,3.41-8.76,5.05-15.86,12.25-20.79,20.7-3.01.63-5.94,1.74-8.69,3.32-9.15,5.29-14.76,15-14.76,25.57v24.83h-27.74v-.05h-.68s.04-7.55-1.51-16.21c-.48-2.7-1.12-5.36-1.99-7.64-.63-1.64-1.29-3.07-2.27-3.93-6.78-5.88-16.7-5.83-16.88-5.83h-.02l-.02-10.55h26.75Z"/>
</svg>