<?xml version="1.0" encoding="UTF-8" standalone="no"?>
<svg
   width="100%"
   height="100%"
   viewBox="0 0 688 399"
   version="1.1"
   xml:space="preserve"
   style="fill-rule:evenodd;clip-rule:evenodd;stroke-linejoin:round;stroke-miterlimit:2;"
   id="svg10"
   sodipodi:docname="MSIDCOM_Logo.svg"
   inkscape:version="1.3.2 (091e20e, 2023-11-25, custom)"
   xmlns:inkscape="http://www.inkscape.org/namespaces/inkscape"
   xmlns:sodipodi="http://sodipodi.sourceforge.net/DTD/sodipodi-0.dtd"
   xmlns="http://www.w3.org/2000/svg"
   xmlns:svg="http://www.w3.org/2000/svg"><defs
   id="defs10" /><sodipodi:namedview
   id="namedview10"
   pagecolor="#ffffff"
   bordercolor="#000000"
   borderopacity="0.25"
   inkscape:showpageshadow="2"
   inkscape:pageopacity="0.0"
   inkscape:pagecheckerboard="0"
   inkscape:deskcolor="#d1d1d1"
   inkscape:zoom="1.0396189"
   inkscape:cx="373.69462"
   inkscape:cy="299.62902"
   inkscape:window-width="1920"
   inkscape:window-height="1009"
   inkscape:window-x="-8"
   inkscape:window-y="-8"
   inkscape:window-maximized="1"
   inkscape:current-layer="g10" />
    <g
   transform="matrix(1,0,0,1,-267.734,-2515.98)"
   id="g10">
        <g
   transform="matrix(10.7177,0,0,10.7177,-4826.13,-4429.07)"
   id="g9">
            <g
   transform="matrix(1,0,0,1,0,-4.77345)"
   id="g6">
                <g
   transform="matrix(0.771693,0,0,0.771693,108.984,103.657)"
   id="g1">
                    <path
   d="M505.606,722.321C508.263,721.757 511.073,722.177 513.501,723.579C514.492,724.151 515.373,724.86 516.121,725.678C514.233,727.711 513.149,730.407 513.149,733.268L513.149,742.677L502.638,742.677L502.638,733.268C502.638,729.356 503.695,725.589 505.606,722.321Z"
   style="fill:rgb(206,238,94);"
   id="path1" />
                </g>
                <g
   transform="matrix(0.771693,0,0,0.771693,108.984,103.657)"
   id="g2">
                    <path
   d="M516.121,725.678C516.87,724.86 517.751,724.151 518.742,723.579C521.17,722.177 523.98,721.757 526.637,722.321C528.548,725.589 529.605,729.356 529.605,733.268L529.605,742.677L519.094,742.677L519.094,733.268C519.094,730.407 518.01,727.711 516.121,725.678Z"
   style="fill:rgb(101,211,236);"
   id="path2" />
                </g>
                <g
   transform="matrix(0.771693,0,0,0.771693,108.984,103.657)"
   id="g3">
                    <path
   d="M516.121,713.186C517.022,713.553 517.903,713.983 518.758,714.477C522.076,716.393 524.766,719.117 526.637,722.321C523.98,721.757 521.17,722.177 518.742,723.579C517.751,724.151 516.87,724.86 516.121,725.678C515.373,724.86 514.492,724.151 513.501,723.579C511.073,722.177 508.263,721.757 505.606,722.321C507.477,719.117 510.167,716.393 513.485,714.477C514.34,713.983 515.221,713.553 516.121,713.186Z"
   style="fill:rgb(73,197,177);"
   id="path3" />
                </g>
                <g
   transform="matrix(0.0926031,0,0,0.0926031,108.984,149.033)"
   id="g4">
                    <path
   d="M4550.27,5698.82L4550.27,5698.98L4462.67,5698.98L4462.67,5620.57C4462.67,5587.19 4444.97,5556.51 4416.07,5539.82C4407.4,5534.82 4398.14,5531.32 4388.64,5529.34C4373.05,5502.65 4350.63,5479.94 4322.98,5463.98C4315.86,5459.86 4308.52,5456.27 4301.01,5453.21C4352.32,5432.24 4411.11,5435.82 4459.87,5463.98C4497.41,5485.65 4525.31,5519.75 4539.58,5559.37L4625.83,5559.37L4625.89,5559.37L4625.83,5592.7L4625.76,5592.7C4625.21,5592.7 4593.88,5592.54 4572.45,5611.12C4569.35,5613.81 4567.25,5618.35 4565.28,5623.52C4562.54,5630.71 4560.53,5639.1 4559.01,5647.64C4554.12,5674.99 4554.25,5698.81 4554.25,5698.81L4550.27,5698.82Z"
   style="fill:rgb(206,238,94);"
   id="path4" />
                </g>
                <g
   transform="matrix(0.0926031,0,0,0.0926031,108.984,149.033)"
   id="g5">
                    <path
   d="M4062.44,5559.37C4076.71,5519.75 4104.61,5485.65 4142.15,5463.98C4190.91,5435.82 4249.7,5432.24 4301.01,5453.21C4293.51,5456.27 4286.17,5459.86 4279.04,5463.98C4251.39,5479.94 4228.97,5502.65 4213.39,5529.34C4203.89,5531.32 4194.63,5534.82 4185.96,5539.82C4157.06,5556.51 4139.35,5587.19 4139.35,5620.57L4139.35,5698.98L4051.76,5698.98L4051.76,5698.82L4049.61,5698.81C4049.61,5698.81 4049.74,5674.99 4044.85,5647.64C4043.32,5639.1 4041.32,5630.71 4038.58,5623.52C4036.6,5618.35 4034.51,5613.81 4031.4,5611.12C4009.98,5592.54 3978.65,5592.7 3978.1,5592.7L3978.03,5592.7L3977.97,5559.37L3978.03,5559.37L3978.03,5559.37L4062.44,5559.37Z"
   style="fill:rgb(101,211,236);"
   id="path5" />
                </g>
            </g>
            <g
   transform="matrix(1.73922,0,0,1.73922,507.416,684.994)"
   id="g8">
                <g
   id="MSIDCOM">
                    <g
   id="g7">
                        <path
   d="m -17.823117,-5.3631871 h 1.167237 l 1.281672,3.9213061 1.281672,-3.9213061 h 1.167237 L -12.269205,0 h -1.037544 L -13.703457,-3.7076941 -14.924097,0 H -15.81669 L -17.029701,-3.7076941 -17.441667,0 h -1.037544 z m 8.1553966,5.4471061 q -0.6332066,0 -1.1977526,-0.244128 -0.556917,-0.24412801 -0.961255,-0.71712602 l 0.656095,-0.67135198 q 0.30516,0.328047 0.68661,0.503514 0.389079,0.16783798 0.8010446,0.16783798 0.434853,0 0.678981,-0.17546698 0.251757,-0.175467 0.251757,-0.480627 0,-0.282273 -0.251757,-0.45774 -0.251757,-0.1754671 -0.9154801,-0.3585631 -0.6026905,-0.167838 -0.9536245,-0.373821 -0.350934,-0.205983 -0.511143,-0.495885 -0.15258,-0.289902 -0.15258,-0.701868 0,-0.427224 0.205983,-0.770529 0.213612,-0.350934 0.625578,-0.549288 0.411966,-0.205983 0.9993986,-0.205983 0.564546,0 1.045173,0.190725 0.480627,0.183096 0.854448,0.53403 l -0.595062,0.709497 q -0.236499,-0.213612 -0.579804,-0.350934 -0.335676,-0.144951 -0.678981,-0.144951 -0.3661916,0 -0.6026906,0.15258 -0.236499,0.15258 -0.236499,0.389079 0,0.259386 0.22887,0.427224 0.22887,0.160209 0.8468186,0.350934 0.648465,0.198354 1.014657,0.419595 0.373821,0.221241 0.53403,0.511143 0.167838,0.2899021 0.167838,0.7018681 0,0.495885 -0.251757,0.86970598 -0.244128,0.37382101 -0.694239,0.57217502 -0.442482,0.198354 -1.014657,0.198354 z m 2.8685006,-5.4471061 h 1.029915 V 0 h -1.029915 z m 2.3115835,0 h 1.937766 q 0.7705291,0 1.4037361,0.350934 0.64083599,0.350934 1.01465699,0.968883 0.37382101,0.61032 0.37382101,1.357962 0,0.7476421 -0.37382101,1.3655911 -0.366192,0.61031998 -1.00702799,0.96888299 Q -1.7793412,0 -2.5422413,0 h -1.945395 z m 1.975911,4.37904608 q 0.480627,0 0.8697061,-0.22124098 0.389079,-0.221241 0.61032,-0.61032 0.22886998,-0.3890791 0.22886998,-0.8697061 0,-0.480627 -0.22886998,-0.862077 -0.221241,-0.389079 -0.617949,-0.61032 -0.3890791,-0.221241 -0.8697061,-0.221241 h -0.938367 v 3.39490508 z"
   id="text6"
   style="font-weight:700;font-size:7.629px;font-family:CocoSharp-Bold, CocoSharp;fill:#333333"
   aria-label="MSID" />
                        <g
   id="text7"
   style="font-size:7.629px;font-family:CocoSharp-Regular, CocoSharp;fill:#333333"
   aria-label="COM"><path
     d="M 3.7971481,0.083919 Q 3.041877,0.083919 2.40867,-0.28227301 1.775463,-0.65609402 1.401642,-1.289301 1.03545,-1.922508 1.03545,-2.6854081 q 0,-0.7629 0.366192,-1.396107 0.366192,-0.633207 0.999399,-0.999399 0.633207,-0.366192 1.3961071,-0.366192 0.526401,0 0.984141,0.175467 0.465369,0.175467 0.831561,0.495885 l -0.358563,0.465369 q -0.30516,-0.251757 -0.678981,-0.389079 -0.373821,-0.144951 -0.778158,-0.144951 -0.5798041,0 -1.0680601,0.289902 -0.480627,0.282273 -0.770529,0.778158 -0.282273,0.495885 -0.282273,1.098576 0,0.595062 0.282273,1.0909471 0.289902,0.495885 0.770529,0.78578698 0.488256,0.28227301 1.0680601,0.28227301 0.778158,0 1.464768,-0.55691699 l 0.350934,0.47299799 q -0.373821,0.320418 -0.83919,0.50351401 -0.45774,0.183096 -0.976512,0.183096 z"
     id="path10" /><path
     d="m 8.8381482,0.083919 q -0.755271,0 -1.388478,-0.36619201 -0.633207,-0.37382101 -1.007028,-1.00702799 -0.366192,-0.633207 -0.366192,-1.3961071 0,-0.7629 0.366192,-1.396107 0.366192,-0.633207 0.999399,-0.999399 0.633207,-0.366192 1.396107,-0.366192 0.7552711,0 1.3884778,0.366192 0.633207,0.366192 0.999399,0.999399 0.366192,0.633207 0.366192,1.396107 0,0.7629001 -0.366192,1.3961071 -0.366192,0.63320698 -0.999399,1.00702799 Q 9.5934193,0.083919 8.8381482,0.083919 Z m 0,-0.60269101 q 0.5798041,0 1.0604311,-0.28227301 0.4882557,-0.28990198 0.7705287,-0.78578698 0.289902,-0.4958851 0.289902,-1.0909471 0,-0.602691 -0.289902,-1.098576 -0.282273,-0.495885 -0.7705287,-0.778158 -0.480627,-0.289902 -1.0604311,-0.289902 -0.579804,0 -1.06806,0.289902 -0.480627,0.282273 -0.770529,0.778158 -0.282273,0.495885 -0.282273,1.098576 0,0.595062 0.282273,1.0909471 0.289902,0.495885 0.770529,0.78578698 0.488256,0.28227301 1.06806,0.28227301 z"
     id="path11" /><path
     d="m 12.965437,-5.3631871 h 0.717126 l 1.67838,4.46296508 1.67838,-4.46296508 h 0.717126 L 18.366769,0 H 17.733562 L 17.275822,-4.3637881 15.627958,0 h -0.53403 L 13.453693,-4.3637881 12.988324,0 h -0.633207 z"
     id="path12" /></g>
                    </g>
                </g>
            </g>
        </g>
    </g>
</svg>
